<svg fill="none" height="15" viewBox="0 0 15 15" width="15" xmlns="http://www.w3.org/2000/svg"><path d="m14.567 11.746c-.7998-.6954-1.6841-1.287-2.632-1.76101-.789-.379-1.078-.37099-1.636.03101-.46502.336-.76501.648-1.30001.531-1.93419-1.02854-3.5169-2.61159-4.54501-4.546-.113-.539.20001-.836.53101-1.3.4-.558.414-.84701.031-1.63601-.47163-.94926-1.0635-1.83386-1.761-2.631992-.57401-.574-.7-.4489984-1.019-.3359985-.32559.1378795-.63789.3052425-.933.5000005-.482141.275172-.872159.68676-1.121003 1.183-.223.48-.479999 1.375.832003 3.71.96803 1.78793 2.1942 3.42349 3.639 4.854 1.4312 1.4443 3.06662 2.6707 4.85399 3.64 2.33502 1.312 3.22902 1.054 3.71002.832.4979-.2464.9101-.637 1.183-1.121.1947-.2951.3621-.6074.5-.933.116-.313.243-.442-.333-1.016z" fill="#fff"/></svg>