<svg fill="none" height="15" viewBox="0 0 16 15" width="16" xmlns="http://www.w3.org/2000/svg"><path d="m14.5702 11.746c-.7998-.6954-1.6841-1.287-2.632-1.76102-.789-.379-1.078-.371-1.636.03102-.46504.336-.76504.648-1.30004.531-1.93418-1.02855-3.5169-2.6116-4.545-4.54602-.113-.539.2-.836.531-1.3.4-.558.414-.847.031-1.636-.47163-.94926-1.06349-1.83386-1.761-2.631997-.574-.574-.7-.4489987-1.019-.3359987-.32559.1378797-.63789.3052427-.933.4999997-.482137.275172-.872155.686756-1.120999 1.182996-.2230001.48-.479999 1.375.831999 3.71.96804 1.78794 2.1942 3.42349 3.639 4.85402 1.4312 1.4443 3.06663 2.6707 4.854 3.64 2.33504 1.312 3.22904 1.054 3.71004.832.4979-.2465.9101-.6371 1.183-1.121.1947-.2951.3621-.6074.5-.933.116-.313.243-.442-.333-1.016z" fill="#000"/></svg>