<svg fill="none" height="16" viewBox="0 0 15 16" width="15" xmlns="http://www.w3.org/2000/svg"><path d="m14.5664 11.9983c-.7998-.6947-1.6841-1.2858-2.632-1.7594-.789-.3786-1.078-.37061-1.636.031-.46503.3357-.76502.6474-1.30002.5305-1.93419-1.02755-3.5169-2.60909-4.54501-4.54166-.113-.53848.20001-.8352.53101-1.29876.4-.55746.414-.84619.031-1.63444-.47163-.94835-1.0635-1.83211-1.76101-2.629481-.574-.573452-.69999-.44857-1.01899-.335678-.32559.137748-.63789.304952-.933.499523-.482142.274906-.872159.686106-1.121003 1.181866-.2230003.47954-.479999 1.37369.832003 3.70646.96803 1.78623 2.1942 3.42022 3.639 4.84937 1.4312 1.4429 3.06662 2.6681 4.85399 3.6365 2.33503 1.3108 3.22903 1.053 3.71003.8312.4979-.2462.9101-.6364 1.183-1.1199.1947-.2948.3621-.6068.5-.9321.116-.3127.243-.4416-.333-1.015z" fill="#000"/></svg>