<svg fill="none" height="47" viewBox="0 0 49 47" width="49" xmlns="http://www.w3.org/2000/svg"><path d="m35.559 0h-.117c-2.2118.0107379-4.386.572541-6.3262 1.63462-1.9401 1.06208-3.5849 2.59095-4.7858 4.44838-1.2009-1.85743-2.8457-3.3863-4.7858-4.44838-1.9402-1.062079-4.1144-1.6238821-6.3262-1.63462h-.118c-3.48457.0329365-6.81532 1.43985-9.26832 3.91494-2.453 2.4751-3.82999119 5.81834-3.83168 9.30306 0 4.328 1.895 10.469 5.591 15.522 7.042 9.627 18.739 18.049 18.739 18.049s11.7-8.422 18.739-18.049c3.7-5.053 5.591-11.194 5.591-15.522-.0017-3.48489-1.3788-6.82828-3.832-9.3034-2.4533-2.47513-5.7843-3.8819254-9.269-3.9146zm4.866 26.81c-4.983 6.819-12.574 13.112-16.1 15.861-3.521-2.749-11.112-9.054-16.1-15.873-3.427-4.679-4.96-10.188-4.96-13.58-.00192-2.6203 1.03252-5.13498 2.87764-6.99546s4.35116-2.91574 6.97136-2.93554h.105c1.6845.00108 3.3404.43605 4.808 1.263 1.4369.80828 2.6569 1.95214 3.556 3.334.2988.45681.7067.83199 1.1868 1.09166s1.0174.39565 1.5632.39565 1.0831-.13598 1.5632-.39565.888-.63485 1.1868-1.09166c.9022-1.37927 2.1215-2.52247 3.556-3.334 1.4676-.82695 3.1235-1.26192 4.808-1.263h.105c2.6202.0198 5.1262 1.07506 6.9714 2.93554 1.8451 1.86048 2.8795 4.37516 2.8776 6.99546-.3141 4.9155-2.0421 9.6356-4.976 13.592z" fill="#000" opacity=".05"/></svg>