<svg fill="none" height="25" viewBox="0 0 136 25" width="136" xmlns="http://www.w3.org/2000/svg"><g fill="#2c2c2c"><path d="m48.01 16.565c-.32.23-.73.395-1.23.495-.49.1-.995.15-1.515.15-.63 0-1.23-.095-1.8-.285-.56-.2-1.055-.515-1.485-.945-.43-.44-.775-1.005-1.035-1.695-.25-.7-.375-1.545-.375-2.535 0-1.03.14-1.89.42-2.58.29-.7.66-1.26 1.11-1.68.46-.43.97-.735 1.53-.915.56-.19 1.12-.285 1.68-.285.6 0 1.105.04 1.515.12.42.08.765.175 1.035.285l-.405 1.74c-.23-.11-.505-.19-.825-.24-.31-.05-.69-.075-1.14-.075-.83 0-1.5.295-2.01.885-.5.59-.75 1.505-.75 2.745 0 .54.06 1.035.18 1.485.12.44.3.82.54 1.14.25.31.555.555.915.735.37.17.795.255 1.275.255.45 0 .83-.045 1.14-.135s.58-.205.81-.345zm6.6819-.21c-.3.24-.71.445-1.23.615-.51.16-1.055.24-1.635.24-1.21 0-2.095-.35-2.655-1.05-.56-.71-.84-1.68-.84-2.91 0-1.32.315-2.31.945-2.97s1.515-.99 2.655-.99c.38 0 .75.05 1.11.15s.68.265.96.495.505.54.675.93.255.875.255 1.455c0 .21-.015.435-.045.675-.02.24-.055.49-.105.75h-4.5c.03.63.19 1.105.48 1.425.3.32.78.48 1.44.48.41 0 .775-.06 1.095-.18.33-.13.58-.26.75-.39zm-2.79-5.505c-.51 0-.89.155-1.14.465-.24.3-.385.705-.435 1.215h2.79c.04-.54-.045-.955-.255-1.245-.2-.29-.52-.435-.96-.435zm8.9972 6.15v-4.26c0-.61-.09-1.05-.27-1.32-.17-.27-.465-.405-.885-.405-.37 0-.685.11-.945.33-.25.21-.43.475-.54.795v4.86h-1.95v-7.5h1.545l.225.99h.06c.23-.32.535-.6.915-.84s.87-.36 1.47-.36c.37 0 .7.05.99.15s.535.265.735.495.35.545.45.945c.1.39.15.875.15 1.455v4.665zm2.8038-7.5h1.035v-1.41l1.95-.555v1.965h1.83v1.65h-1.83v2.88c0 .52.05.895.15 1.125.11.22.31.33.6.33.2 0 .37-.02.51-.06.15-.04.315-.1.495-.18l.345 1.5c-.27.13-.585.24-.945.33s-.725.135-1.095.135c-.69 0-1.2-.175-1.53-.525-.32-.36-.48-.945-.48-1.755v-3.78h-1.035zm11.9363 6.855c-.3.24-.71.445-1.23.615-.51.16-1.055.24-1.635.24-1.21 0-2.095-.35-2.655-1.05-.56-.71-.84-1.68-.84-2.91 0-1.32.315-2.31.945-2.97s1.515-.99 2.655-.99c.38 0 .75.05 1.11.15s.68.265.96.495.505.54.675.93.255.875.255 1.455c0 .21-.015.435-.045.675-.02.24-.055.49-.105.75h-4.5c.03.63.19 1.105.48 1.425.3.32.78.48 1.44.48.41 0 .775-.06 1.095-.18.33-.13.58-.26.75-.39zm-2.79-5.505c-.51 0-.89.155-1.14.465-.24.3-.385.705-.435 1.215h2.79c.04-.54-.045-.955-.255-1.245-.2-.29-.52-.435-.96-.435zm8.5472.48c-.31-.11-.59-.165-.84-.165-.35 0-.645.095-.885.285-.23.18-.385.415-.465.705v4.845h-1.95v-7.5h1.515l.225.99h.06c.17-.37.4-.655.69-.855s.63-.3 1.02-.3c.26 0 .555.055.885.165zm7.8088 5.67h-6.645v-10.5h2.055v8.67h4.59zm.1277-3.75c0-1.27.31-2.245.93-2.925.62-.69 1.49-1.035 2.61-1.035.6 0 1.12.095 1.56.285s.805.46 1.095.81c.29.34.505.755.645 1.245.15.49.225 1.03.225 1.62 0 1.27-.31 2.25-.93 2.94-.61.68-1.475 1.02-2.595 1.02-.6 0-1.12-.095-1.56-.285s-.81-.455-1.11-.795c-.29-.35-.51-.77-.66-1.26-.14-.49-.21-1.03-.21-1.62zm2.01 0c0 .33.03.635.09.915s.15.525.27.735.275.375.465.495c.2.11.435.165.705.165.51 0 .89-.185 1.14-.555s.375-.955.375-1.755c0-.69-.115-1.245-.345-1.665-.23-.43-.62-.645-1.17-.645-.48 0-.855.18-1.125.54s-.405.95-.405 1.77zm12.7521 3.75c0 1.09-.295 1.89-.885 2.4-.59.52-1.415.78-2.475.78-.72 0-1.2905-.05-1.7105-.15-.41-.1-.72-.205-.93-.315l.405-1.545c.23.09.495.18.795.27.31.09.69.135 1.1405.135.68 0 1.14-.15 1.38-.45.25-.29.375-.7.375-1.23v-.48h-.06c-.35.47-.97.705-1.86.705-.9705 0-1.6955-.3-2.1755-.9-.47-.6-.705-1.54-.705-2.82 0-1.34.32-2.355.96-3.045s1.57-1.035 2.7905-1.035c.64 0 1.21.045 1.71.135.51.09.925.195 1.245.315zm-3.3-1.44c.38 0 .67-.085.87-.255.21-.17.37-.425.48-.765v-3.375c-.31-.13-.695-.195-1.155-.195-.5 0-.89.19-1.1705.57-.28.37-.42.965-.42 1.785 0 .73.12 1.285.36 1.665s.5855.57 1.0355.57zm5.162-6.06h1.95v7.5h-1.95zm-.285-2.115c0-.29.105-.535.315-.735.22-.21.52-.315.9-.315s.685.105.915.315c.24.2.36.445.36.735s-.12.535-.36.735c-.23.19-.535.285-.915.285s-.68-.095-.9-.285c-.21-.2-.315-.445-.315-.735zm7.253 7.545c0-.2-.085-.36-.255-.48s-.38-.23-.63-.33-.525-.2-.825-.3c-.3-.11-.575-.255-.825-.435-.25-.19-.46-.425-.63-.705-.17-.29-.255-.66-.255-1.11 0-.74.22-1.305.66-1.695s1.075-.585 1.905-.585c.57 0 1.085.06 1.545.18s.82.255 1.08.405l-.435 1.41c-.23-.09-.52-.185-.87-.285s-.705-.15-1.065-.15c-.58 0-.87.225-.87.675 0 .18.085.325.255.435s.38.215.63.315c.25.09.525.19.825.3s.575.255.825.435c.25.17.46.395.63.675s.255.64.255 1.08c0 .76-.245 1.36-.735 1.8-.48.43-1.205.645-2.175.645-.53 0-1.03-.07-1.5-.21-.46-.13-.835-.285-1.125-.465l.54-1.455c.23.13.535.26.915.39.38.12.77.18 1.17.18.29 0 .52-.055.69-.165.18-.11.27-.295.27-.555zm2.443-5.43h1.035v-1.41l1.95-.555v1.965h1.83v1.65h-1.83v2.88c0 .52.05.895.15 1.125.11.22.31.33.6.33.2 0 .37-.02.51-.06.15-.04.315-.1.495-.18l.345 1.5c-.27.13-.585.24-.945.33s-.725.135-1.095.135c-.69 0-1.2-.175-1.53-.525-.32-.36-.48-.945-.48-1.755v-3.78h-1.035zm6.174 0h1.95v7.5h-1.95zm-.285-2.115c0-.29.105-.535.315-.735.22-.21.52-.315.9-.315s.685.105.915.315c.24.2.36.445.36.735s-.12.535-.36.735c-.23.19-.535.285-.915.285s-.68-.095-.9-.285c-.21-.2-.315-.445-.315-.735zm9.459 9.15c-.3.22-.665.385-1.095.495-.42.12-.855.18-1.305.18-.6 0-1.11-.095-1.53-.285-.41-.19-.745-.455-1.005-.795-.26-.35-.45-.77-.57-1.26-.11-.49-.165-1.03-.165-1.62 0-1.27.285-2.245.855-2.925.57-.69 1.4-1.035 2.49-1.035.55 0 .99.045 1.32.135.34.09.645.205.915.345l-.465 1.59c-.23-.11-.46-.195-.69-.255-.22-.06-.475-.09-.765-.09-.54 0-.95.18-1.23.54-.28.35-.42.915-.42 1.695 0 .32.035.615.105.885s.175.505.315.705.32.36.54.48c.23.11.495.165.795.165.33 0 .61-.04.84-.12.23-.09.435-.195.615-.315z"/><path d="m12.5 8.036c-.8829 0-1.746.26181-2.4801.75232-.73407.49051-1.30623 1.18769-1.6441 2.00338-.33787.8157-.42627 1.7133-.25403 2.5792.17225.8659.5974 1.6613 1.22171 2.2856.6243.6243 1.41972 1.0495 2.28562 1.2217.8659.1723 1.7635.0839 2.5792-.254s1.5129-.91 2.0034-1.6441.7523-1.5972.7523-2.4801c-.0034-1.1829-.4748-2.3163-1.3113-3.15274-.8364-.83642-1.9698-1.30783-3.1527-1.31126zm10.655 3.274c-.2761-2.41494-1.362-4.66515-3.0809-6.3838-1.7188-1.71865-3.9691-2.80438-6.3841-3.0802v-1.846h-2.38v1.845c-2.41497.27582-4.66529 1.36155-6.38413 3.0802-1.71883 1.71865-2.8048 3.96886-3.08087 6.3838h-1.845v2.381h1.845c.27586 2.4151 1.36173 4.6656 3.08059 6.3844 1.71885 1.7189 3.96929 2.8047 6.38441 3.0806v1.845h2.38v-1.845c2.4151-.2759 4.6656-1.3617 6.3844-3.0806 1.7189-1.7188 2.8047-3.9693 3.0806-6.3844h1.845v-2.38zm-10.655 9.523c-1.6481 0-3.25921-.4887-4.62957-1.4044-1.37035-.9156-2.43841-2.217-3.06912-3.7397-.6307-1.5227-.79572-3.1981-.47419-4.8146.32153-1.61643 1.11517-3.10123 2.28056-4.26662s2.65019-1.95903 4.26662-2.28056c1.6165-.32153 3.2919-.15651 4.8146.47419 1.5227.63071 2.8241 1.69877 3.7397 3.06912.9157 1.37036 1.4044 2.98147 1.4044 4.62957-.0066 2.208-.8866 4.3237-2.448 5.885-1.5613 1.5614-3.677 2.4414-5.885 2.448z"/></g></svg>