<svg fill="none" height="11" viewBox="0 0 16 11" width="16" xmlns="http://www.w3.org/2000/svg"><g fill="#fff"><path d="m15.071 1.289-3.93 4c-.0132.01329-.0206.03127-.0206.05s.0074.0367.0206.05l2.75 2.92899c.0443.04404.0794.0964.1033.15407.024.05766.0364.1195.0364.18194 0 .06245-.0124.12427-.0364.18193-.0239.05766-.059.11003-.1033.15407-.0892.08891-.2101.13883-.336.13883-.126 0-.2468-.04992-.336-.13883l-2.74-2.908c-.0141-.01405-.0331-.02193-.053-.02193s-.0389.00788-.053.02193l-.66801.679c-.27364.27962-.60033.50183-.96092.65362s-.74784.23012-1.13908.23038c-.39932-.00163-.79429-.08295-1.16176-.23921s-.70005-.38432-.97824-.67079l-.643-.65401c-.01407-.01405-.03313-.02193-.053-.02193-.01988 0-.03894.00788-.053.02193l-2.739 2.91801c-.08922.08891-.21005.13883-.336.13883-.12596 0-.24678-.04992-.336-.13883-.04427-.04404-.07939-.0964-.10336-.15406-.02397-.05767-.03631-.11951-.03631-.18195 0-.06245.01234-.12427.03631-.18193s.05909-.11002.10336-.15407l2.75-2.929c.01171-.01403.01813-.03171.01813-.04999 0-.01827-.00642-.03597-.01813-.05l-3.934004-4c-.010012-.01046-.0229422-.01766-.0371059-.02066s-.0289007-.00165-.0422897.00386-.0248077.01491-.03276444.02701c-.00795672.01209-.01208051.02631-.01183701.04078v8.01c.00079198.30979.12420705.60668.34326505.82571.219059.2191.515939.3425.825736.3433h12.86001c.3098-.0008.6067-.1242.8257-.3433.2191-.21903.3425-.51592.3433-.82571v-8.01c.0017-.01502-.0013-.03021-.0086-.04345-.0073-.01325-.0185-.0239-.0321-.03049-.0137-.00659-.029-.00878-.0439-.00629-.0149.0025-.0287.00958-.0394.02024z"/><path d="m7.59698 6.688c.26608.00075.52961-.05198.77491-.15505.24531-.10307.4674-.25439.6531-.44496l5.73101-5.832996c-.2045-.1656972-.4598-.25607421-.723-.25599666h-12.86801c-.263335-.00073281-.518805.08971966-.723004.25599666l5.731004 5.832996c.18522.19009.40667.34113.65125.44418s.50734.15604.77274.15583z"/></g></svg>