<svg fill="none" height="11" viewBox="0 0 16 11" width="16" xmlns="http://www.w3.org/2000/svg"><g fill="#000"><path d="m15.074 1.57761-3.93 3.99611c-.0132.01328-.0206.03124-.0206.04995s.0074.03667.0206.04996l2.75 2.92613c.0443.044.0794.09631.1034.15392.0239.05761.0363.11938.0363.18177 0 .06238-.0124.12415-.0363.18175-.024.05761-.0591.10992-.1034.15392-.0892.08882-.21.13869-.336.13869s-.2468-.04987-.336-.13869l-2.74-2.90517c-.0141-.01404-.0331-.02191-.053-.02191s-.0389.00787-.053.02191l-.66799.67834c-.27364.27935-.60033.50134-.96092.65298-.36059.15165-.74784.2299-1.13908.23016-.39932-.00163-.79429-.08287-1.16176-.23898s-.70005-.38395-.97824-.67014l-.643-.65337c-.01407-.01403-.03313-.02191-.053-.02191-.01988 0-.03894.00788-.053.02191l-2.739 2.91517c-.08922.08883-.21005.13869-.336.13869-.12596 0-.24678-.04986-.336-.13869-.04427-.044-.07939-.09631-.10336-.15391-.02397-.05761-.0363-.11939-.0363-.18177 0-.06239.01233-.12415.0363-.18176.02397-.0576.05909-.10991.10336-.15391l2.75-2.92615c.01171-.01402.01813-.03169.01813-.04994 0-.01826-.00642-.03594-.01813-.04996l-3.934003-3.99611c-.010011-.01044-.022942-.01764-.0371056-.02064-.0141637-.00299-.0289007-.00164-.0422898.00386-.013389.0055-.0248077.0149-.0327644.02698-.00795673.01209-.01208051.02629-.01183701.04075v8.0022c.00079198.30949.12420681.60605.34326581.82495.219058.2188.515938.3421.825734.3429h12.85999c.3098-.0008.6067-.1241.8257-.3429.2191-.2189.3425-.51546.3433-.82495v-8.0022c.0017-.01501-.0013-.03018-.0086-.04341-.0073-.01324-.0185-.02388-.0321-.03046s-.029-.00878-.0439-.00628c-.0149.00249-.0287.00956-.0394.02021z"/><path d="m7.60001 6.97118c.26608.00075.5296-.05193.77491-.15489.2453-.10297.46739-.25414.65309-.44452l5.73099-5.827205c-.2045-.165532-.4598-.25582-.723-.255742h-12.86799c-.263333-.000732-.518804.08963-.723003.255742l5.731003 5.827205c.18522.1899.40667.34079.65125.44374.24459.10295.50734.15589.77275.15567z"/></g></svg>