<svg fill="none" height="11" viewBox="0 0 16 11" width="16" xmlns="http://www.w3.org/2000/svg"><g fill="#000"><path d="m15.0741 1.28906-3.93 4c-.0132.0133-.0206.03127-.0206.05s.0074.03671.0206.05l2.75 2.92899c.0443.04404.0794.09641.1034.15407s.0363.1195.0363.18194c0 .06245-.0123.12427-.0363.18193-.024.05767-.0591.11003-.1034.15407-.0892.08891-.21.13883-.336.13883-.1259 0-.2467-.04992-.336-.13883l-2.74-2.908c-.014-.01405-.0331-.02193-.053-.02193-.0198 0-.0389.00788-.053.02193l-.66797.679c-.27364.27962-.60032.50183-.96092.65362-.36059.1518-.74784.23012-1.13908.23038-.39931-.00162-.79429-.08295-1.16176-.23921s-.70005-.38432-.97824-.67079l-.643-.65401c-.01406-.01405-.03312-.02193-.053-.02193-.01987 0-.03894.00788-.053.02193l-2.739 2.91801c-.08922.08892-.21004.13883-.336.13883s-.24678-.04991-.336-.13883c-.04426-.04404-.07939-.0964-.10336-.15406-.02397-.05767-.0363-.1195-.0363-.18195 0-.06244.01233-.12427.0363-.18193s.0591-.11002.10336-.15407l2.75-2.929c.01172-.01403.01814-.03171.01814-.04999 0-.01827-.00642-.03597-.01814-.05l-3.934001-4c-.010011-.01046-.022942-.01766-.0371056-.02066-.0141637-.003-.0289006-.00165-.0422897.00386-.013389.00551-.0248077.01491-.0327644.02701-.00795675.01209-.01208054.02631-.01183703.04079v8.00999c.00079198.30979.12420673.60669.34326573.82575.219058.2191.515938.3425.825732.3433h12.85997c.3098-.0008.6067-.1242.8258-.3433.219-.21906.3424-.51596.3432-.82575v-8.00999c.0017-.01503-.0013-.03022-.0086-.04346-.0073-.01325-.0185-.0239-.0321-.03049s-.0289-.00878-.0439-.00629c-.0149.0025-.0286.00958-.0394.02024z"/><path d="m7.60007 6.68803c.26608.00075.5296-.05198.77491-.15505.2453-.10307.4674-.25438.65309-.44496l5.73103-5.832995c-.2046-.1656977-.4598-.25607469-.723-.25599715h-12.86803c-.263332-.0007328-.518803.08971965-.723002.25599715l5.731002 5.832995c.18522.19009.40667.34113.65125.44418.24459.10305.50734.15605.77275.15583z"/></g></svg>