<svg fill="none" height="15" viewBox="0 0 15 15" width="15" xmlns="http://www.w3.org/2000/svg" xmlns:xlink="http://www.w3.org/1999/xlink"><clipPath id="a"><path d="m0 0h15v15h-15z"/></clipPath><g clip-path="url(#a)"><path d="m14.991 14.621c-.281-1.242-1.887-1.848-2.442-2.043-.6704-.1689-1.3498-.2994-2.035-.391-.3454-.0625-.66925-.2118-.941-.434-.09604-.6374-.11685-1.2838-.062-1.926.17148-.2699.32032-.55354.445-.848.1434-.48515.253-.97967.328-1.48 0 0 .32 0 .434-.562.149-.42302.2461-.86257.289-1.309-.023-.449-.27-.437-.27-.437.1869-.64987.2766-1.32385.266-2-.088-.86704-.4948-1.67054-1.1414-2.25482-.64662-.584284-1.4871-.9077605-2.3586-.9077605-.87149 0-1.71197.3234765-2.35859.9077605-.64663.58428-1.05336 1.38778-1.14141 2.25482-.00771.67571.08051 1.34908.262 2 0 0-.246-.012-.27.438.04293.44643.13998.88599.289 1.309.109.563.434.563.434.563.07496.50033.18456.99485.328 1.48.1247.29445.27355.57809.445.848.05452.6423.03337 1.2887-.063 1.926-.27175.2222-.59558.3715-.941.434-.68521.0916-1.36464.2221-2.035.391-.555.2-2.160002.8-2.44200176 2.043-.01010303.0459-.0096866.0935.00120546.1393.010892.0457.031983.0884.0616989.1249.0297164.0364.0672854.0657.1099014.0856s.089178.0298.1362.0292h14.371996c.0465-.0006.0922-.0116.1339-.0322s.0782-.0502.107-.0868c.0287-.0365.0489-.0789.0592-.1243.0102-.0453.0102-.0924-.0001-.1377z" fill="#fff"/></g></svg>