<svg fill="none" height="15" viewBox="0 0 16 15" width="16" xmlns="http://www.w3.org/2000/svg" xmlns:xlink="http://www.w3.org/1999/xlink"><clipPath id="a"><path d="m.003174 0h15v15h-15z"/></clipPath><g clip-path="url(#a)"><path d="m14.9941 14.621c-.281-1.242-1.887-1.848-2.442-2.043-.6703-.1688-1.3497-.2994-2.035-.391-.3454-.0624-.6692-.2118-.94095-.434-.09605-.6373-.11686-1.2838-.06201-1.92597.17149-.2699.32033-.55355.445-.84801.14346-.48515.25306-.97967.32796-1.48 0 0 .32 0 .434-.562.1491-.42301.2461-.86257.289-1.309-.023-.449-.27-.437-.27-.437.187-.64987.2766-1.32385.266-2-.088-.86703-.4947-1.67053-1.14136-2.254817-.64662-.584284-1.4871-.9077606-2.35859-.9077606-.8715 0-1.71198.3234766-2.3586.9077606-.64662.584287-1.05336 1.387787-1.1414 2.254817-.00771.67571.0805 1.34909.262 2 0 0-.24601-.012-.27001.438.04294.44643.13998.886.289 1.30901.109.563.434.56299.434.56299.07496.50033.18456.99485.328 1.48001.12471.29445.27355.57808.445.848.05453.64227.03338 1.28867-.063 1.92597-.27175.2222-.59558.3716-.94099.434-.68521.0916-1.36465.2221-2.03501.391-.555.2-2.159998.8-2.4419985 2.043-.01010298.046-.00968655.0936.0012055.1393.010892.0458.031983.0885.0616989.1249.0297161.0365.0672851.0657.1099011.0856.042617.0199.089178.0299.1362.0292h14.371953c.0465-.0006.0923-.0116.1339-.0322.0417-.0206.0783-.0502.107-.0867.0288-.0366.049-.079.0592-.1244.0103-.0453.0102-.0923-.0001-.1377z" fill="#000"/></g></svg>