<svg fill="none" height="36" viewBox="0 0 26 36" width="26" xmlns="http://www.w3.org/2000/svg" xmlns:xlink="http://www.w3.org/1999/xlink"><clipPath id="a"><path d="m0 0h25.714v36h-25.714z"/></clipPath><g clip-path="url(#a)"><path d="m12.857-.00004786c-3.37276-.02380144-6.61792 1.28789786-9.02684 3.64865786-2.40891 2.36077-3.7858645 5.57879-3.83016 8.95139 0 9.4499 12.857 23.4 12.857 23.4s12.857-13.9501 12.857-23.4c-.0443-3.3726-1.4212-6.59062-3.8302-8.95139-2.4089-2.36076-5.654-3.6724593-9.0268-3.64865786zm0 17.10004786c-.8859-.0182-1.7467-.2974-2.4745-.8027-.72782-.5054-1.29026-1.2144-1.61679-2.0381s-.40262-1.7254-.21874-2.5922c.18389-.8668.61956-1.66 1.25241-2.28012.63282-.62017 1.43472-1.0397 2.30502-1.20601s1.7703-.07199 2.5873.27115c.8169.34313 1.5143.9198 2.0048 1.65768.4906.7379.7523 1.6042.7525 2.4903.0001.5987-.1192 1.1915-.3511 1.7435-.2319.5521-.5716 1.0523-.9993 1.4714-.4276.4191-.9346.7486-1.4913.9693-.5566.2206-1.1517.328-1.7503.3158z" fill="#65c511"/></g></svg>