<svg fill="none" height="68" viewBox="0 0 68 68" width="68" xmlns="http://www.w3.org/2000/svg" xmlns:xlink="http://www.w3.org/1999/xlink"><clipPath id="a"><path d="m0 0h68v68h-68z"/></clipPath><g clip-path="url(#a)"><path d="m31.608 46.217c-.3565.0031-.7094-.0718-1.0339-.2193-.3246-.1475-.613-.3641-.8451-.6347l-12.9-14.01c-.226-.2465-.401-.5353-.5151-.8496-.1141-.3144-.165-.6482-.1498-.9823.0153-.3341.0963-.6619.2386-.9645.1422-.3027.3428-.5743.5903-.7993.2475-.2249.5369-.3988.8517-.5116.3149-.1128.6489-.1623.9829-.1457s.6615.099.9636.2425c.302.1434.5728.3451.7968.5935l11.105 12.045 30.754-30.66798c.4797-.45439 1.1178-.70369 1.7785-.69487.6607.00881 1.2919.27506 1.7593.74209.4674.46704.7342 1.09796.7436 1.75866.0093.6607-.2394 1.299-.6934 1.7791l-32.633 32.55c-.2255.2505-.5027.4489-.8125.5817s-.6447.1967-.9815.1873z" fill="#4dcfe0"/><path d="m34 68c-9.0174 0-17.6654-3.5821-24.04163-9.9584-6.37624-6.3762-9.95837-15.0242-9.95837-24.0416s3.58213-17.6654 9.95837-24.04163c6.37623-6.37624 15.02423-9.95836897 24.04163-9.95836897.3383-.00624121.6744.05578867.9882.18238197.3137.126593.5988.315151.838.554402.2393.239251.4278.524285.5544.838065s.1886.64986.1824.98815c.0061.33821-.056.67418-.1827.98785-.1266.31366-.3152.59857-.5544.83771-.2393.23915-.5243.42762-.838.55415s-.6497.18853-.9879.18229c-5.7107.0002-11.293 1.69377-16.0412 4.86656-4.7481 3.17284-8.44881 7.68234-10.63409 12.95834s-2.757 11.0815-1.64286 16.6824c1.11415 5.6009 3.86411 10.7457 7.90215 14.7837 4.038 4.038 9.1828 6.788 14.7837 7.9021 5.6009 1.1142 11.4064.5425 16.6824-1.6428s9.7855-5.886 12.9583-10.6341c3.1728-4.7482 4.8664-10.3305 4.8666-16.0412-.0067-.3408.0546-.6795.1803-.9963.1258-.3167.3135-.6053.5521-.8487.2386-.2433.5234-.4367.8376-.5687.3142-.1319.6517-.1999.9925-.1999s.6783.068.9925.1999c.3142.132.599.3254.8376.5687.2386.2434.4263.532.5521.8487.1257.3168.187.6555.1803.9963-.0235 9.0101-3.6132 17.6445-9.9843 24.0157-6.3712 6.3711-15.0056 9.9608-24.0157 9.9843z" fill="#1185e0"/></g></svg>